<svg xmlns="http://www.w3.org/2000/svg" viewBox="0 0 118.266 23" height="23mm" width="446.99"><g fill="#120a8f"><path d="M117.929 20.95l-5.474-5.694a9.256 9.256 0 002.178-5.97c0-5.12-4.166-9.286-9.286-9.286-5.12 0-9.286 4.166-9.286 9.286 0 5.12 4.166 9.286 9.286 9.286 1.922 0 3.754-.58 5.32-1.68l5.516 5.737c.23.239.54.371.873.371a1.213 1.213 0 00.873-2.05zM105.347 2.421a6.871 6.871 0 016.864 6.864 6.871 6.871 0 01-6.864 6.864 6.871 6.871 0 01-6.864-6.864 6.871 6.871 0 016.864-6.864z"/><g><path d="M19.301 5.922c-.011-.62-.023-1.208-.023-1.775a.805.805 0 00-.805-.805c-3.443 0-6.064-.99-8.25-3.114a.805.805 0 00-1.122 0C6.917 2.352 4.296 3.342.853 3.342a.805.805 0 00-.805.805c0 .568-.011 1.154-.023 1.775-.11 5.78-.262 13.694 9.374 17.034a.805.805 0 00.527 0c9.637-3.34 9.486-11.255 9.375-17.034zM9.663 21.341c-8.264-3.002-8.14-9.579-8.028-15.388.006-.348.013-.686.017-1.018C4.877 4.8 7.455 3.822 9.662 1.9c2.208 1.923 4.787 2.9 8.012 3.036l.018 1.018c.11 5.81.235 12.386-8.03 15.388z"/><path d="M12.435 8.703L8.549 12.59 6.891 10.93a.805.805 0 00-1.138 1.138l2.227 2.228a.803.803 0 001.139 0l4.454-4.455a.805.805 0 10-1.138-1.139z"/></g><g><path d="M71.997 9.756a.985.985 0 00-.644-.78l-1.812-.645a9.412 9.412 0 00-.363-.884l.824-1.735a.986.986 0 00-.096-1.007 11.522 11.522 0 00-2.468-2.468.984.984 0 00-1.006-.095l-1.734.824a9.394 9.394 0 00-.885-.363L63.168.79a.985.985 0 00-.779-.643c-1.273-.196-2.216-.196-3.492 0a.986.986 0 00-.779.643l-.644 1.813a9.36 9.36 0 00-.885.363l-1.735-.824a.984.984 0 00-1.006.095 11.522 11.522 0 00-2.468 2.468.986.986 0 00-.096 1.007l.825 1.735a9.44 9.44 0 00-.364.884l-1.812.645a.985.985 0 00-.644.78c-.099.65-.145 1.203-.145 1.745 0 .54.046 1.095.145 1.744.054.36.302.66.644.78l1.812.645c.108.304.23.6.364.885l-.825 1.734a.985.985 0 00.096 1.007 11.523 11.523 0 002.468 2.468.983.983 0 001.007.095l1.734-.824c.285.135.58.256.885.364l.644 1.812c.122.341.42.588.78.643.636.098 1.207.146 1.745.146s1.109-.048 1.746-.146a.985.985 0 00.779-.643l.644-1.812c.304-.108.6-.229.885-.364l1.734.824a.984.984 0 001.007-.095 11.522 11.522 0 002.468-2.468.985.985 0 00.096-1.007l-.824-1.734c.134-.286.256-.582.363-.885l1.812-.644a.984.984 0 00.644-.78 11.4 11.4 0 00.145-1.745c0-.541-.046-1.096-.145-1.745zm-1.873 2.615l-1.7.604a.984.984 0 00-.615.65c-.152.513-.352.999-.595 1.444a.986.986 0 00-.024.894l.77 1.622c-.372.447-.784.86-1.232 1.232l-1.621-.77a.983.983 0 00-.894.024 7.457 7.457 0 01-1.446.595.984.984 0 00-.65.614l-.604 1.7a8.052 8.052 0 01-1.74 0l-.604-1.7a.986.986 0 00-.65-.614c-.513-.152-1-.352-1.445-.595a.98.98 0 00-.894-.024l-1.622.77a9.589 9.589 0 01-1.232-1.232l.77-1.622a.986.986 0 00-.024-.894 7.418 7.418 0 01-.594-1.445.985.985 0 00-.615-.649l-1.7-.604a8.378 8.378 0 01-.048-.87c0-.276.016-.56.048-.87l1.7-.605a.985.985 0 00.615-.649c.152-.513.352-1 .594-1.446.15-.276.16-.61.025-.893l-.771-1.622a9.58 9.58 0 011.232-1.233l1.622.771a.983.983 0 00.895-.024 7.42 7.42 0 011.445-.595.986.986 0 00.649-.614l.604-1.7a7.969 7.969 0 011.74 0l.605 1.7a.986.986 0 00.649.614c.514.152 1 .352 1.446.595a.98.98 0 00.894.024l1.621-.77c.447.372.86.784 1.233 1.232l-.771 1.622a.985.985 0 00.024.893c.244.448.443.933.595 1.445.09.303.318.545.615.65l1.7.604c.032.31.047.595.047.87 0 .276-.015.561-.047.87z"/><path d="M60.643 6.706a4.568 4.568 0 00-4.563 4.563 4.568 4.568 0 004.563 4.563 4.568 4.568 0 004.563-4.563 4.568 4.568 0 00-4.563-4.563zm0 7.155a2.595 2.595 0 01-2.592-2.592 2.595 2.595 0 012.592-2.592 2.595 2.595 0 012.592 2.592 2.595 2.595 0 01-2.592 2.592z"/></g></g></svg>