<svg xmlns="http://www.w3.org/2000/svg" viewBox="0 0 2.381 4.053" height="15.32" width="9"><defs><linearGradient id="a"><stop offset="0" stop-color="#ff00da"/><stop offset="1" stop-color="#ff00da" stop-opacity="0"/></linearGradient></defs><g fill="#ff0096"><path d="M1.581 2.026L.065 3.542A.22.22 0 000 3.7c0 .06.023.115.065.157l.133.133a.22.22 0 00.156.064.22.22 0 00.157-.064l1.806-1.806a.22.22 0 00.064-.157.22.22 0 00-.064-.158L.513.065A.22.22 0 00.356 0a.22.22 0 00-.157.065L.066.198a.222.222 0 000 .313z"/></g></svg>