<svg xmlns="http://www.w3.org/2000/svg" viewBox="0 0 73.868 20" height="20mm" width="279.185"><g fill="#a0a0a0"><path d="M7 2.045a7 7 0 00-7 7c0 3.507 4.361 8.121 6.2 9.91.45.437 1.161.446 1.62.018C9.67 17.249 14 12.809 14 9.044a7 7 0 00-7-7zm0 9.274a2.893 2.893 0 11-.001-5.785A2.893 2.893 0 017 11.319z"/><g><path d="M39.36 16.167c.314 0 .587-.104.819-.31l-3.967-3.966-.274.197c-.297.22-.538.39-.723.512a4.453 4.453 0 01-.738.375 2.25 2.25 0 01-.86.191h-.015a2.25 2.25 0 01-.86-.19 4.439 4.439 0 01-.738-.376 18.4 18.4 0 01-.723-.512l-.273-.198-3.968 3.968c.232.205.505.309.82.309zM27.399 9.393a4.142 4.142 0 01-.79-.68v6.035l3.497-3.496c-.7-.488-1.6-1.107-2.707-1.859zM39.828 9.393a230.13 230.13 0 00-2.713 1.86l3.495 3.495V8.713c-.224.25-.485.477-.782.68z"/><path d="M39.36 5.167h-11.5c-.401 0-.71.135-.926.406-.216.27-.324.61-.324 1.015 0 .328.143.684.43 1.067.286.383.59.683.914.902.177.125.71.496 1.601 1.113a517.697 517.697 0 012.047 1.426l.117.083.215.156c.17.122.31.221.422.297.112.075.247.16.406.253.16.094.309.165.45.211.14.047.27.07.39.07h.016c.12 0 .25-.023.39-.07.14-.046.29-.117.45-.21.158-.094.294-.179.406-.254.112-.076.252-.175.422-.297a52.4 52.4 0 01.332-.239l.79-.55 2.866-1.989c.38-.265.698-.586.953-.96.255-.376.383-.769.383-1.18 0-.344-.124-.638-.371-.883a1.208 1.208 0 00-.88-.367z"/></g><g><path d="M72.412 6L68.2 1.789v4.21z"/><path d="M67.423 7.556a.778.778 0 01-.778-.778V1.333h-7a.778.778 0 00-.777.778v17.111c0 .43.348.778.777.778H72.09c.43 0 .778-.348.778-.778V7.556zM62.757 6h1.555a.778.778 0 110 1.555h-1.555a.778.778 0 110-1.555zm6.222 9.333h-6.222a.778.778 0 110-1.555h6.222a.778.778 0 110 1.555zm0-3.889h-6.222a.778.778 0 110-1.555h6.222a.778.778 0 110 1.555z"/></g></g></svg>