<svg xmlns="http://www.w3.org/2000/svg" viewBox="0 0 603 156"><g fill="#FF0096"><path d="M293.6 136.2l-.3-61.4-29.8 50h-14.6l-29.6-48.4v59.8H189V20.3h27l40.7 66.9 39.7-66.9h27l.3 115.9h-30.1zM424.6 113.7h-49l-9.1 22.5H333l51.2-115.9h32.3l51.3 115.9h-34.1l-9.1-22.5zM415 89.5l-15-37.1-14.9 37.1H415zM500.5 130.8c-9.7-5.1-17.3-12.3-22.8-21.4-5.5-9.2-8.3-19.5-8.3-31.1s2.8-22 8.3-31.1c5.5-9.2 13.1-16.3 22.8-21.4 9.7-5.1 20.6-7.7 32.7-7.7 10.6 0 20.1 1.9 28.6 5.6 8.5 3.8 15.6 9.2 21.2 16.2l-20.9 18.9c-7.5-9.1-16.6-13.6-27.3-13.6-6.3 0-11.9 1.4-16.8 4.1-4.9 2.8-8.7 6.7-11.4 11.7-2.7 5-4.1 10.8-4.1 17.3s1.4 12.3 4.1 17.3c2.7 5 6.5 8.9 11.4 11.7 4.9 2.8 10.5 4.1 16.8 4.1 10.7 0 19.8-4.5 27.3-13.6l20.9 18.9c-5.6 7.1-12.7 12.5-21.2 16.2-8.5 3.8-18 5.6-28.6 5.6-12.2 0-23.1-2.5-32.7-7.7z"/></g><g fill="#4B5463"><path d="M47.6 52.8c3.4-1.3 7.2-2 11.6-2v18.6c-1.9-.2-3.4-.3-4.7-.3-4.4 0-7.9 1.2-10.4 3.6-2.5 2.4-3.8 6.1-3.8 11v27.1H19.7V51.7h19.7v7.1c2-2.7 4.8-4.7 8.2-6zM127 86.4H84.1c.9 3 2.6 5.4 5.1 7s5.6 2.4 9.4 2.4c2.8 0 5.3-.4 7.3-1.2 2.1-.8 4.1-2.1 6.3-3.9l10.9 11.3c-5.7 6.4-14.1 9.6-25.1 9.6-6.9 0-12.9-1.3-18.2-3.9-5.2-2.6-9.3-6.2-12.1-10.9-2.9-4.6-4.3-9.9-4.3-15.8 0-5.8 1.4-11 4.2-15.6 2.8-4.6 6.6-8.2 11.6-10.8 4.9-2.6 10.5-3.9 16.6-3.9 5.9 0 11.2 1.2 16 3.6 4.8 2.4 8.6 5.9 11.4 10.5 2.8 4.6 4.2 10.1 4.2 16.4-.1.3-.2 2-.4 5.2zM87.9 68.2c-2.1 1.8-3.5 4.3-4.1 7.4h24.1c-.6-3.1-1.9-5.6-4.1-7.4-2.1-1.8-4.8-2.7-8-2.7-3.1-.1-5.8.8-7.9 2.7zM136.8 71.7c-2.4-2.3-3.6-5.3-3.6-8.8 0-3.6 1.2-6.6 3.5-8.8 2.4-2.2 5.3-3.4 8.9-3.4 3.6 0 6.6 1.1 8.9 3.4 2.3 2.2 3.5 5.2 3.5 8.8 0 3.6-1.2 6.5-3.5 8.8-2.4 2.3-5.3 3.5-8.9 3.5-3.5 0-6.5-1.1-8.8-3.5zm0 36.5c-2.4-2.3-3.6-5.3-3.6-8.8 0-3.6 1.2-6.6 3.5-8.8 2.4-2.2 5.3-3.4 8.9-3.4 3.6 0 6.6 1.1 8.9 3.4 2.3 2.2 3.5 5.2 3.5 8.8 0 3.6-1.2 6.5-3.5 8.8-2.4 2.3-5.3 3.5-8.9 3.5-3.5-.1-6.5-1.2-8.8-3.5z"/></g></svg>