<svg xmlns="http://www.w3.org/2000/svg" viewBox="0 0 306.414 36.26" height="137.048" width="1158.1"><g fill="#fff"><path d="M99.329 18.763a1.06 1.06 0 00-1.497.093l-.017.019v-.743c0-4.333-1.688-8.407-4.752-11.471a16.116 16.116 0 00-11.47-4.752c-2.618 0-5.22.639-7.523 1.846a16.358 16.358 0 00-5.657 4.915 1.06 1.06 0 101.722 1.238 14.227 14.227 0 014.92-4.275c2-1.049 4.261-1.603 6.537-1.603 7.776 0 14.102 6.326 14.102 14.102v.743l-.017-.019a1.06 1.06 0 10-1.59 1.404l1.873 2.12a1.06 1.06 0 001.589 0l1.872-2.12a1.06 1.06 0 00-.092-1.497zm0 0M94.53 26.11a1.06 1.06 0 00-1.48.242 14.233 14.233 0 01-4.92 4.275 14.133 14.133 0 01-6.538 1.604c-7.776 0-14.102-6.327-14.102-14.103v-.743l.017.02A1.06 1.06 0 1069.097 16l-1.873-2.12a1.061 1.061 0 00-1.589 0l-1.872 2.12a1.06 1.06 0 101.59 1.404l.016-.02v.743c0 4.334 1.688 8.407 4.752 11.472a16.115 16.115 0 0011.471 4.751c2.617 0 5.218-.638 7.522-1.846a16.362 16.362 0 005.657-4.915 1.06 1.06 0 00-.242-1.48zm0 0"/><path d="M81.592 22.37a4.246 4.246 0 004.241-4.242 4.246 4.246 0 00-4.24-4.24 4.246 4.246 0 00-4.242 4.24 4.246 4.246 0 004.241 4.241zm0-6.362c1.17 0 2.12.95 2.12 2.12 0 1.17-.95 2.12-2.12 2.12-1.17 0-2.12-.95-2.12-2.12 0-1.17.95-2.12 2.12-2.12zm0 0"/><path d="M71.134 20.845c-.073.271-.035.56.106.804l2.12 3.673a1.06 1.06 0 001.449.388l1.56-.9a8.542 8.542 0 002.042 1.182v1.798c0 .585.475 1.06 1.06 1.06h4.242a1.06 1.06 0 001.06-1.06v-1.798a8.542 8.542 0 002.043-1.182l1.56.9a1.06 1.06 0 001.447-.388l2.12-3.673a1.06 1.06 0 00-.387-1.448l-1.563-.902a8.548 8.548 0 00-.002-2.354l1.565-.904a1.06 1.06 0 00.388-1.448l-2.12-3.673a1.06 1.06 0 00-1.449-.388l-1.57.906a8.547 8.547 0 00-2.032-1.174V8.452a1.06 1.06 0 00-1.06-1.06h-4.241a1.06 1.06 0 00-1.06 1.06v1.812a8.545 8.545 0 00-2.033 1.174l-1.57-.906a1.06 1.06 0 00-1.448.388l-2.12 3.673a1.061 1.061 0 00.387 1.448l1.565.904a8.518 8.518 0 00-.002 2.354l-1.562.902a1.06 1.06 0 00-.495.644zm4.267-1.247a6.394 6.394 0 01.003-2.95 1.06 1.06 0 00-.501-1.165l-1.296-.748 1.06-1.836 1.3.75a1.06 1.06 0 001.259-.147 6.38 6.38 0 012.548-1.471 1.06 1.06 0 00.758-1.017V9.513h2.12v1.501c0 .47.308.883.758 1.017.946.281 1.827.79 2.548 1.471.341.322.853.382 1.258.148l1.301-.751 1.06 1.836-1.296.748a1.06 1.06 0 00-.501 1.164 6.395 6.395 0 01.003 2.951 1.06 1.06 0 00.501 1.163l1.293.746-1.06 1.837-1.291-.746a1.06 1.06 0 00-1.26.149 6.386 6.386 0 01-2.556 1.479 1.06 1.06 0 00-.758 1.016v1.488h-2.12v-1.488c0-.47-.308-.882-.758-1.016a6.381 6.381 0 01-2.556-1.48 1.06 1.06 0 00-1.26-.148l-1.29.746-1.061-1.837 1.293-.746a1.06 1.06 0 00.501-1.163zm0 0M36.26 34.663c0-1.28-.761-2.43-1.939-2.931l-9.033-3.843v-2.253a8.427 8.427 0 001.764-4.166h1.846a3.19 3.19 0 003.187-3.187v-4.568a3.192 3.192 0 00-2.743-3.156C29.112 3.647 25.248 0 18.13 0 11.013 0 7.15 3.647 6.92 10.56a3.192 3.192 0 00-2.744 3.155v4.568a3.19 3.19 0 003.187 3.187H9.21a8.425 8.425 0 001.763 4.166v2.253L1.94 31.732A3.182 3.182 0 000 34.664v.534a1.062 1.062 0 001.062 1.062h34.136a1.063 1.063 0 001.062-1.062zm-13.095-6.03c0 .026.06 2.605-1.463 4.19-.836.871-2.038 1.312-3.572 1.312-1.528 0-2.727-.438-3.562-1.302-1.542-1.594-1.473-4.177-1.472-4.2V27.54c1.455.92 3.19 1.415 5.034 1.415 1.844 0 3.579-.494 5.033-1.415v1.052l.001.043zm1.838-8.793l-2.02 1.347a3.883 3.883 0 01-2.162.654h-1.796a1.062 1.062 0 000 2.125h1.796a6 6 0 003.34-1.011l.407-.272c-.959 2.474-3.41 4.146-6.438 4.146-3.918 0-6.873-2.8-6.873-6.515V11.7c.42-1.947 1.026-3.184 1.757-3.58.729-.396 1.787.015 2.81.413.798.31 1.552.602 2.306.602.762 0 1.506-.296 2.294-.609 1.025-.407 1.993-.792 2.71-.418.523.273 1.268 1.121 1.87 3.606zm4.958-6.125v4.568c0 .586-.477 1.063-1.063 1.063h-1.77v-6.694h1.77c.586 0 1.063.477 1.063 1.063zM10.937 4.727C12.41 3 14.828 2.125 18.13 2.125c3.302 0 5.722.875 7.193 2.602 1.158 1.36 1.793 3.31 1.891 5.8h-.326c-.641-2.278-1.531-3.655-2.772-4.301-1.58-.824-3.186-.186-4.476.326-.568.226-1.155.46-1.51.46-.357 0-.956-.234-1.536-.459-1.336-.52-3-1.165-4.593-.3-1.202.652-2.072 2.055-2.648 4.275h-.307c.098-2.492.733-4.441 1.891-5.8zM6.3 18.283v-4.568c0-.586.476-1.063 1.062-1.063h1.77v6.694h-1.77A1.064 1.064 0 016.3 18.283zM2.77 33.687l8.323-3.541c.186 1.152.65 2.721 1.785 3.99H2.265a1.06 1.06 0 01.506-.45zm20.61.449c1.136-1.269 1.599-2.838 1.785-3.99l8.323 3.54c.218.093.393.253.506.45zm0 0"/><g><path d="M214.657 11.803v2.098c0 .617.306 1.188.82 1.53a1.835 1.835 0 001.727.166l1.555-.65a1.062 1.062 0 00-.82-1.958l-1.16.485v-4.19a1.062 1.062 0 00-1.812-.751l-1.613 1.614a1.061 1.061 0 001.303 1.656zm0 0M215.494 6.368h.388a1.061 1.061 0 000-2.123h-.388a1.061 1.061 0 000 2.123zm0 0"/><path d="M216.014 20.164c5.56 0 10.083-4.523 10.083-10.082 0-5.56-4.523-10.082-10.083-10.082-5.559 0-10.082 4.523-10.082 10.082 0 5.56 4.523 10.082 10.082 10.082zm0-18.042c4.39 0 7.96 3.571 7.96 7.96 0 4.389-3.57 7.96-7.96 7.96-4.389 0-7.959-3.571-7.959-7.96 0-4.389 3.57-7.96 7.96-7.96zm0 0M231.784 26.356a4.232 4.232 0 00-3.679-.71l-6.922 1.874a3.6 3.6 0 00-3.39-4.795h-4.747a4.888 4.888 0 00-3.778-1.775A4.886 4.886 0 00206.24 22a3.189 3.189 0 00-2.933-1.946h-4.992c-.586 0-1.061.475-1.061 1.06V35.2c0 .586.475 1.062 1.061 1.062h4.991c1.08 0 2.033-.54 2.61-1.363a4.892 4.892 0 003.352 1.327h8.054c1.59 0 3.138-.313 4.603-.931l10.905-4.604c.398-.168.654-.56.648-.992a4.232 4.232 0 00-1.694-3.342zm-28.478 7.782h-3.93V22.175h3.93c.586 0 1.062.476 1.062 1.061v2.304a4.98 4.98 0 00-.012.322v5.451c0 .109.005.216.012.323v1.44c0 .586-.476 1.062-1.062 1.062zm17.793-.8a9.662 9.662 0 01-3.777.765H209.268a2.792 2.792 0 01-2.778-2.54v-5.95a2.792 2.792 0 012.778-2.54c.953 0 1.832.48 2.348 1.286.196.305.532.488.894.488h5.282c.813 0 1.474.662 1.474 1.474 0 .813-.66 1.474-1.472 1.475h-4.676c-.281 0-.551.111-.75.31l-1.13 1.13a1.061 1.061 0 001.501 1.5l.819-.818h6.748c.094 0 .187-.012.278-.037l8.076-2.187a2.124 2.124 0 011.846.357c.346.26.598.61.734 1.006zm0 0"/></g><path d="M306.277 27.783a7.047 7.047 0 00-2.053-3.734 7.11 7.11 0 00-4.86-1.954c.072-.272.11-.555.11-.844 0-.878-.342-1.704-.963-2.325a3.269 3.269 0 00-1.074-.715 3.294 3.294 0 00-.5-4.006 3.276 3.276 0 00-2.188-.959 3.264 3.264 0 00-.96-2.189 3.262 3.262 0 00-2.19-.96 3.275 3.275 0 00-.958-2.188 3.292 3.292 0 00-4.65 0l-1.459 1.46-.444-.444a7.103 7.103 0 00-1.833-6.846 7.062 7.062 0 00-7.747-1.525 1.061 1.061 0 00-.34 1.73l3.497 3.498a.352.352 0 010 .501L276.44 7.51a.354.354 0 01-.5 0l-3.499-3.498a1.061 1.061 0 00-1.73.341 7.077 7.077 0 00-.413 4.126 7.044 7.044 0 002.053 3.734 7.091 7.091 0 004.263 1.924l-1.125 1.124a7.689 7.689 0 00-2.27 5.473c0 .535.055 1.06.16 1.572l-2.885 2.885a1.062 1.062 0 101.502 1.502l2.196-2.196c.345.62.779 1.196 1.295 1.711l4.724 4.724a7.732 7.732 0 001.7 1.287l-2.223 2.224a1.062 1.062 0 101.501 1.502l2.912-2.912a7.79 7.79 0 001.583.163 7.717 7.717 0 005.472-2.264l1.12-1.12a7.089 7.089 0 007.045 6.45c.923 0 1.855-.182 2.745-.554a1.063 1.063 0 00.342-1.73l-3.498-3.499a.353.353 0 010-.5l1.226-1.226a.354.354 0 01.5 0l3.498 3.497a1.061 1.061 0 001.731-.34 7.078 7.078 0 00.413-4.126zm-12.416-2.561a1.165 1.165 0 01-1.646-1.646l3.148-3.148c.22-.22.512-.34.823-.34.31 0 .603.12.823.34.22.22.34.512.34.823 0 .311-.12.603-.34.823zm1.574-7.87l-1.574 1.574-3.147 3.148a1.165 1.165 0 01-1.646 0 1.165 1.165 0 010-1.646l1.049-1.049.524-.525 3.148-3.147a1.162 1.162 0 111.646 1.646zm-2.807-3.97c0 .31-.12.603-.34.823l-2.397 2.397-1.646-1.646 2.396-2.397c.22-.22.512-.34.823-.34.311 0 .603.12.823.34.22.22.34.512.34.823zm-5.134-3.97a1.165 1.165 0 011.645 0 1.165 1.165 0 010 1.645l-2.396 2.397-1.646-1.646zM279 11.726a4.998 4.998 0 01-5.183-1.05 4.933 4.933 0 01-1.533-3.817l2.151 2.151a2.481 2.481 0 003.505 0l1.226-1.226c.468-.468.726-1.09.726-1.752 0-.662-.258-1.284-.726-1.752l-2.15-2.15a4.943 4.943 0 013.736 1.45 4.973 4.973 0 011.133 5.263c-.147.39-.052.83.243 1.125l.475.476a4.027 4.027 0 00-3.432 1.134l-.137.138-.034.01zm10.652 17.703a5.622 5.622 0 01-7.941 0l-4.724-4.725a5.578 5.578 0 01-1.645-3.971c0-1.5.585-2.911 1.646-3.971l3.684-3.681a1.91 1.91 0 012.227-.342c.055.04.113.074.174.102.104.07.202.15.294.24l2.616 2.617.007.008.008.007 2.376 2.375a2.652 2.652 0 01-3.505-.212l-.999-1a1.062 1.062 0 00-1.502 1.503l.475.474c.64.64.992 1.491.992 2.397 0 .905-.352 1.756-.992 2.397l-1.23 1.228a1.062 1.062 0 001.503 1.502l1.229-1.229a5.477 5.477 0 001.588-4.443c.233.04.469.06.705.066a3.285 3.285 0 003.114 3.762c.034.827.371 1.6.96 2.19.29.29.62.513.974.672zm14.636-.029l-2.152-2.152a2.481 2.481 0 00-3.504 0l-1.226 1.227a2.461 2.461 0 00-.726 1.752c0 .662.258 1.284.726 1.752l2.149 2.15a4.943 4.943 0 01-3.736-1.45 4.973 4.973 0 01-1.132-5.263l.009-.027.666-.667 2.18-2.18a4.998 4.998 0 015.212 1.04 4.932 4.932 0 011.534 3.818zm0 0"/><g><path d="M162.77 27.693h-.44c.241-1.025.369-2.085.369-3.164 0-7.56-6.15-13.711-13.711-13.711-7.56 0-13.711 6.15-13.711 13.71 0 1.08.127 2.14.37 3.165h-.44a4.224 4.224 0 00-4.22 4.219 4.224 4.224 0 004.22 4.218h27.562a4.224 4.224 0 004.219-4.218 4.224 4.224 0 00-4.219-4.22zm-13.782-14.766c6.397 0 11.601 5.205 11.601 11.602 0 3.79-1.837 7.315-4.93 9.492h-13.342a11.586 11.586 0 01-4.93-9.492c0-6.397 5.204-11.602 11.6-11.602zm-15.89 18.985c0-1.164.946-2.11 2.109-2.11h1.122a13.679 13.679 0 002.763 4.219h-3.885a2.112 2.112 0 01-2.11-2.11zm29.671 2.109h-3.886a13.679 13.679 0 002.763-4.219h1.123c1.163 0 2.11.946 2.11 2.11 0 1.163-.947 2.109-2.11 2.109z"/><path d="M148.988 27.693a1.056 1.056 0 01-1.055-1.055 1.055 1.055 0 00-2.11 0c0 1.375.883 2.547 2.11 2.983v1.236a1.055 1.055 0 002.11 0V29.62a3.169 3.169 0 002.109-2.983 3.168 3.168 0 00-3.164-3.164 1.056 1.056 0 010-2.11c.581 0 1.055.474 1.055 1.055a1.055 1.055 0 002.109 0 3.169 3.169 0 00-2.11-2.982V18.2a1.055 1.055 0 00-2.109 0v1.236a3.169 3.169 0 00-2.11 2.982 3.168 3.168 0 003.165 3.164 1.056 1.056 0 010 2.11zM148.988 8.568c.582 0 1.055-.472 1.055-1.055V3.294a1.055 1.055 0 00-2.11 0v4.22c0 .582.472 1.054 1.055 1.054zM153.207 6.458c.582 0 1.054-.472 1.054-1.054v-4.22a1.055 1.055 0 00-2.11 0v4.22c0 .582.473 1.054 1.056 1.054zM144.77 6.458c.582 0 1.054-.472 1.054-1.054v-4.22a1.055 1.055 0 00-2.11 0v4.22c0 .582.473 1.054 1.055 1.054z"/></g></g></svg>