<svg xmlns="http://www.w3.org/2000/svg" viewBox="0 0 210.063 44.309" height="167.467" width="793.94"><g fill="#ff0096"><path d="M113.856 40.88c1.072 0 2-.353 2.79-1.052L103.14 26.323l-.935.672a62.283 62.283 0 01-2.46 1.742c-.63.418-1.468.843-2.514 1.277-1.047.435-2.022.652-2.927.652h-.052c-.905 0-1.88-.217-2.927-.652-1.046-.434-1.884-.86-2.513-1.277-.63-.416-1.45-.997-2.461-1.742-.282-.206-.594-.433-.932-.675L71.913 39.828a4.075 4.075 0 002.79 1.053zM73.133 17.819a14.102 14.102 0 01-2.687-2.315v20.548l11.903-11.903a920.2 920.2 0 00-9.216-6.33zM115.453 17.819a783.536 783.536 0 00-9.239 6.334l11.899 11.9V15.503a14.68 14.68 0 01-2.66 2.315z"/><path d="M113.856 3.428H74.702c-1.366 0-2.416.462-3.152 1.383-.736.922-1.103 2.075-1.103 3.458 0 1.117.487 2.327 1.462 3.631.975 1.304 2.013 2.327 3.112 3.072.603.426 2.42 1.69 5.454 3.79a1762.63 1762.63 0 014.284 2.977c1.043.727 1.942 1.356 2.685 1.878l.397.283.733.529c.577.417 1.055.753 1.437 1.01.38.258.842.546 1.383.865a8.07 8.07 0 001.53.718c.478.16.922.24 1.33.24h.052c.408 0 .851-.08 1.33-.24.479-.16.989-.398 1.53-.718.54-.32 1.001-.607 1.383-.864.382-.258.86-.594 1.437-1.011a178.411 178.411 0 011.13-.812l2.692-1.87c2.205-1.532 5.453-3.788 9.757-6.775a12.652 12.652 0 003.245-3.271c.868-1.277 1.303-2.616 1.303-4.017 0-1.17-.422-2.172-1.264-3.006-.842-.833-1.84-1.25-2.993-1.25z"/><g><path d="M29.448 30.9l-4.652-4.653c-.927-.923-2.461-.895-3.42.064l-2.344 2.343a68.569 68.569 0 01-.462-.257c-1.48-.82-3.506-1.944-5.638-4.077-2.138-2.138-3.263-4.167-4.085-5.648-.087-.157-.17-.308-.252-.452l1.573-1.57.773-.775c.96-.96.987-2.494.062-3.42L6.351 7.802c-.924-.924-2.46-.896-3.42.065l-1.31 1.318.035.036a7.582 7.582 0 00-1.08 1.905 7.9 7.9 0 00-.48 1.933c-.615 5.093 1.712 9.747 8.027 16.062 8.73 8.73 15.765 8.07 16.069 8.038a7.86 7.86 0 001.938-.487 7.556 7.556 0 001.899-1.076l.028.026 1.329-1.3c.958-.961.986-2.496.062-3.423z"/></g><g><path d="M194.016 0c-8.848 0-16.047 7.199-16.047 16.047 0 10.981 14.36 27.102 14.972 27.783.574.64 1.577.638 2.15 0 .612-.681 14.972-16.802 14.972-27.783C210.063 7.199 202.865 0 194.016 0zm0 24.12c-4.452 0-8.073-3.621-8.073-8.073s3.621-8.074 8.073-8.074 8.074 3.622 8.074 8.074-3.622 8.074-8.074 8.074z"/></g></g></svg>